<svg width="24" height="24" viewBox="0 0 24 24" fill="none" xmlns="http://www.w3.org/2000/svg">
<path d="M19.5 3.375H4.5C3.80381 3.375 3.13613 3.65156 2.64384 4.14384C2.15156 4.63613 1.875 5.30381 1.875 6V16.5C1.875 17.1962 2.15156 17.8639 2.64384 18.3562C3.13613 18.8484 3.80381 19.125 4.5 19.125H19.5C19.8447 19.125 20.1861 19.0571 20.5045 18.9252C20.823 18.7933 21.1124 18.5999 21.3562 18.3562C21.5999 18.1124 21.7933 17.823 21.9252 17.5045C22.0571 17.1861 22.125 16.8447 22.125 16.5V6C22.125 5.65528 22.0571 5.31394 21.9252 4.99546C21.7933 4.67698 21.5999 4.3876 21.3562 4.14384C21.1124 3.90009 20.823 3.70673 20.5045 3.57482C20.1861 3.4429 19.8447 3.375 19.5 3.375ZM19.875 16.5C19.875 16.5995 19.8355 16.6948 19.7652 16.7652C19.6948 16.8355 19.5995 16.875 19.5 16.875H4.5C4.40054 16.875 4.30516 16.8355 4.23484 16.7652C4.16451 16.6948 4.125 16.5995 4.125 16.5V6C4.125 5.90054 4.16451 5.80516 4.23484 5.73484C4.30516 5.66451 4.40054 5.625 4.5 5.625H19.5C19.5995 5.625 19.6948 5.66451 19.7652 5.73484C19.8355 5.80516 19.875 5.90054 19.875 6V16.5ZM16.125 21.375C16.125 21.6734 16.0065 21.9595 15.7955 22.1705C15.5845 22.3815 15.2984 22.5 15 22.5H9C8.70163 22.5 8.41548 22.3815 8.2045 22.1705C7.99353 21.9595 7.875 21.6734 7.875 21.375C7.875 21.0766 7.99353 20.7905 8.2045 20.5795C8.41548 20.3685 8.70163 20.25 9 20.25H15C15.2984 20.25 15.5845 20.3685 15.7955 20.5795C16.0065 20.7905 16.125 21.0766 16.125 21.375Z" fill="white"/>
</svg>
