<svg width="22" height="20" viewBox="0 0 22 20" fill="none" xmlns="http://www.w3.org/2000/svg">
<path d="M18.5 0.375H3.5C2.80381 0.375 2.13613 0.651562 1.64384 1.14384C1.15156 1.63613 0.875 2.30381 0.875 3V13.5C0.875 14.1962 1.15156 14.8639 1.64384 15.3562C2.13613 15.8484 2.80381 16.125 3.5 16.125H18.5C18.8447 16.125 19.1861 16.0571 19.5045 15.9252C19.823 15.7933 20.1124 15.5999 20.3562 15.3562C20.5999 15.1124 20.7933 14.823 20.9252 14.5045C21.0571 14.1861 21.125 13.8447 21.125 13.5V3C21.125 2.65528 21.0571 2.31394 20.9252 1.99546C20.7933 1.67698 20.5999 1.3876 20.3562 1.14384C20.1124 0.900091 19.823 0.706735 19.5045 0.574816C19.1861 0.442898 18.8447 0.375 18.5 0.375ZM18.875 13.5C18.875 13.5995 18.8355 13.6948 18.7652 13.7652C18.6948 13.8355 18.5995 13.875 18.5 13.875H3.5C3.40054 13.875 3.30516 13.8355 3.23484 13.7652C3.16451 13.6948 3.125 13.5995 3.125 13.5V3C3.125 2.90054 3.16451 2.80516 3.23484 2.73484C3.30516 2.66451 3.40054 2.625 3.5 2.625H18.5C18.5995 2.625 18.6948 2.66451 18.7652 2.73484C18.8355 2.80516 18.875 2.90054 18.875 3V13.5ZM15.125 18.375C15.125 18.6734 15.0065 18.9595 14.7955 19.1705C14.5845 19.3815 14.2984 19.5 14 19.5H8C7.70163 19.5 7.41548 19.3815 7.2045 19.1705C6.99353 18.9595 6.875 18.6734 6.875 18.375C6.875 18.0766 6.99353 17.7905 7.2045 17.5795C7.41548 17.3685 7.70163 17.25 8 17.25H14C14.2984 17.25 14.5845 17.3685 14.7955 17.5795C15.0065 17.7905 15.125 18.0766 15.125 18.375Z" fill="#003292"/>
</svg>
