<svg width="24" height="24" viewBox="0 0 24 24" fill="none" xmlns="http://www.w3.org/2000/svg">
<circle cx="12" cy="12" r="12" fill="white"/>
<g clip-path="url(#clip0_64_28)">
<path d="M12 5.25C10.2098 5.25 8.4929 5.96116 7.22703 7.22703C5.96116 8.4929 5.25 10.2098 5.25 12C5.25 13.7902 5.96116 15.5071 7.22703 16.773C8.4929 18.0388 10.2098 18.75 12 18.75C13.3919 18.75 14.8556 18.3294 15.915 17.625C16.0808 17.5149 16.196 17.3434 16.2353 17.1483C16.2746 16.9532 16.2348 16.7504 16.1247 16.5847C16.0145 16.4189 15.8431 16.3037 15.648 16.2644C15.4529 16.2251 15.2501 16.2649 15.0844 16.375C14.2719 16.9144 13.0912 17.25 12 17.25C10.9616 17.25 9.94661 16.9421 9.08326 16.3652C8.2199 15.7883 7.54699 14.9684 7.14963 14.0091C6.75227 13.0498 6.6483 11.9942 6.85088 10.9758C7.05345 9.95738 7.55346 9.02191 8.28769 8.28769C9.02191 7.55346 9.95738 7.05345 10.9758 6.85088C11.9942 6.6483 13.0498 6.75227 14.0091 7.14963C14.9684 7.54699 15.7883 8.2199 16.3652 9.08326C16.9421 9.94661 17.25 10.9616 17.25 12C17.25 12.5806 17.1456 13.0675 16.9569 13.3719C16.7919 13.6369 16.5819 13.75 16.25 13.75C15.9181 13.75 15.7081 13.6369 15.5431 13.3719C15.3556 13.0675 15.25 12.5806 15.25 12V9.5C15.25 9.32004 15.1853 9.14608 15.0676 9.00988C14.95 8.87367 14.7873 8.78431 14.6093 8.75808C14.4313 8.73186 14.2497 8.77052 14.0978 8.86703C13.9459 8.96353 13.8338 9.11144 13.7819 9.28375C13.2662 8.94492 12.6647 8.75988 12.0478 8.75026C11.4309 8.74065 10.8239 8.90686 10.2979 9.22946C9.77197 9.55206 9.3487 10.0177 9.07762 10.572C8.80654 11.1263 8.69884 11.7463 8.76712 12.3595C8.8354 12.9728 9.07684 13.5539 9.46321 14.035C9.84958 14.516 10.3649 14.8772 10.949 15.0762C11.533 15.2752 12.1617 15.3038 12.7614 15.1587C13.3611 15.0137 13.9071 14.7008 14.3356 14.2569C14.7687 14.8938 15.4256 15.25 16.25 15.25C17.7919 15.25 18.75 14.005 18.75 12C18.748 10.2104 18.0362 8.49466 16.7708 7.22922C15.5053 5.96378 13.7896 5.25199 12 5.25ZM12 13.75C11.6539 13.75 11.3155 13.6474 11.0278 13.4551C10.74 13.2628 10.5157 12.9895 10.3832 12.6697C10.2508 12.3499 10.2161 11.9981 10.2836 11.6586C10.3511 11.3191 10.5178 11.0073 10.7626 10.7626C11.0073 10.5178 11.3191 10.3511 11.6586 10.2836C11.9981 10.2161 12.3499 10.2508 12.6697 10.3832C12.9895 10.5157 13.2628 10.74 13.4551 11.0278C13.6474 11.3155 13.75 11.6539 13.75 12C13.75 12.4641 13.5656 12.9092 13.2374 13.2374C12.9092 13.5656 12.4641 13.75 12 13.75Z" fill="#003292"/>
</g>
<defs>
<clipPath id="clip0_64_28">
<rect width="16" height="16" fill="white" transform="translate(4 4)"/>
</clipPath>
</defs>
</svg>
