<svg width="56" height="56" viewBox="0 0 56 56" fill="none" xmlns="http://www.w3.org/2000/svg">
<g clip-path="url(#clip0_401_28)">
<path d="M28 56C43.464 56 56 43.464 56 28C56 12.536 43.464 0 28 0C12.536 0 0 12.536 0 28C0 43.464 12.536 56 28 56Z" fill="black"/>
<path d="M46.5129 49.0066L21.5119 16.8H16.8V39.1913H20.5691V21.5863L43.5554 51.2859C44.5922 50.5903 45.581 49.8291 46.5129 49.0066Z" fill="url(#paint0_linear_401_28)"/>
<path d="M39.5129 16.8H35.7788V39.2H39.5129V16.8Z" fill="url(#paint1_linear_401_28)"/>
</g>
<defs>
<linearGradient id="paint0_linear_401_28" x1="29.0298" y1="39.7165" x2="38.9541" y2="52.0166" gradientUnits="userSpaceOnUse">
<stop stop-color="white"/>
<stop offset="1" stop-color="white" stop-opacity="0"/>
</linearGradient>
<linearGradient id="paint1_linear_401_28" x1="37.6432" y1="16.7937" x2="37.576" y2="33.244" gradientUnits="userSpaceOnUse">
<stop stop-color="white"/>
<stop offset="1" stop-color="white" stop-opacity="0"/>
</linearGradient>
<clipPath id="clip0_401_28">
<rect width="56" height="56" fill="white"/>
</clipPath>
</defs>
</svg>
