<svg width="24" height="24" viewBox="0 0 24 24" fill="none" xmlns="http://www.w3.org/2000/svg">
<circle cx="12" cy="12" r="12" fill="white"/>
<path d="M17.9936 15.3094C17.8955 16.0546 17.5295 16.7387 16.9639 17.2339C16.3983 17.729 15.6718 18.0013 14.9201 18C10.5531 18 7 14.447 7 10.0799C6.99866 9.32822 7.27099 8.60174 7.76613 8.03615C8.26128 7.47057 8.94537 7.10456 9.69065 7.00649C9.87911 6.98348 10.07 7.02203 10.2347 7.1164C10.3995 7.21077 10.5293 7.35589 10.6048 7.53009L11.7664 10.1234V10.13C11.8242 10.2633 11.8481 10.4089 11.8359 10.5537C11.8237 10.6986 11.7758 10.8381 11.6965 10.9599C11.6866 10.9748 11.6762 10.9885 11.6652 11.0023L10.5201 12.3597C10.932 13.1968 11.8076 14.0647 12.6558 14.4778L13.9945 13.3387C14.0076 13.3276 14.0214 13.3174 14.0357 13.3079C14.1574 13.2267 14.2975 13.1772 14.4432 13.1637C14.5888 13.1503 14.7356 13.1734 14.8701 13.2309L14.8772 13.2342L17.4683 14.3953C17.6428 14.4705 17.7883 14.6002 17.883 14.765C17.9777 14.9297 18.0165 15.1207 17.9936 15.3094Z" fill="#003292"/>
</svg>
