<svg width="56" height="56" viewBox="0 0 56 56" fill="none" xmlns="http://www.w3.org/2000/svg">
<g clip-path="url(#clip0_402_14)">
<path d="M28 56C43.463 56 56 43.463 56 28C56 12.537 43.463 0 28 0C12.537 0 0 12.537 0 28C0 43.463 12.537 56 28 56ZM14.959 15.771C18.5733 12.39 23.6017 9.79767 28.2427 8.148C36.0477 5.37367 44.296 7.00933 45.5607 11.9863L45.3903 11.83C46.6153 16.73 42.3803 22.5773 36.9577 24.675C32.1277 26.5627 28.1003 26.25 26.4577 25.725C24.5653 25.095 23.4803 23.87 23.2003 23.17C23.0953 22.89 22.9203 22.435 23.2003 22.295C23.3753 22.1877 23.4453 22.2227 23.933 22.7477C24.3903 23.24 26.1753 24.5677 29.6053 24.1827C38.6003 23.17 43.988 16.2027 42.2777 12.46C41.0877 9.835 34.1903 8.64267 25.5453 12.95C15.0103 18.2 14.4153 22.5377 14.3453 24.1827C14.1003 28.6977 19.9453 31.0777 23.0953 34.4727C23.198 34.5427 23.2703 34.6127 23.3403 34.7177C24.283 34.3327 25.6153 34.1577 27.7153 34.1203C32.823 34.0527 35.6953 37.4103 35.5903 40.4203C35.4853 42.8027 33.313 43.7827 32.928 43.8527C32.6503 43.8877 32.473 43.8877 32.438 43.6777C32.4053 43.5353 32.5103 43.4677 32.8603 43.2553C33.2127 43.0453 34.223 42.3103 34.433 41.0527C34.6453 39.7927 33.6653 36.7127 28.763 36.1527C27.013 35.9403 25.6503 36.0803 24.493 36.3953C25.3377 38.2503 25.5103 42.0303 23.5503 44.9727C21.5203 47.9803 17.7403 49.8377 14.0653 48.8203C12.8753 48.5077 11.0553 46.0553 12.6303 42.6253C14.1003 39.368 20.3747 36.2203 21.231 35.8003V35.7863C18.3237 33.2827 11.2537 29.9087 10.2573 24.7497C9.975 23.2867 10.6587 19.7867 14.959 15.771Z" fill="#C76495"/>
<path d="M15.8736 46.109C16.849 46.6737 19.1216 46.0017 20.7503 44.2307C21.2846 43.6473 21.7186 43.0173 22.0453 42.3407C22.106 42.21 22.1713 42.0723 22.2273 41.93L22.379 41.51C22.799 40.2407 22.8433 38.8337 22.435 37.3287L22.183 37.471V37.478C22.183 37.478 19.2686 38.857 17.2363 40.999C15.3463 42.994 14.8236 45.4977 15.8736 46.109Z" fill="#C76495"/>
</g>
<defs>
<clipPath id="clip0_402_14">
<rect width="56" height="56" fill="white"/>
</clipPath>
</defs>
</svg>
