<svg width="43" height="26" viewBox="0 0 43 26" fill="none" xmlns="http://www.w3.org/2000/svg">
<path fill-rule="evenodd" clip-rule="evenodd" d="M21.156 0C15.5258 0 11.977 2.83798 10.578 8.47974C12.6936 5.64176 15.1504 4.5818 17.9826 5.29984C19.5864 5.71015 20.7466 6.8727 22.0091 8.17201C24.0906 10.2919 26.4792 12.7196 31.734 12.7196C37.3643 12.7196 40.913 9.88164 42.312 4.23987C40.1964 7.07785 37.7396 8.13783 34.9074 7.41978C33.3037 7.00947 32.1435 5.84692 30.881 4.5476C28.7995 2.42767 26.4109 0 21.156 0ZM10.578 12.6854C4.94778 12.6854 1.39903 15.5234 0 21.1652C2.1156 18.3272 4.57243 17.2672 7.40461 17.9853C9.00837 18.3956 10.1685 19.5581 11.4311 20.8574C13.5126 22.9774 15.9011 25.405 21.156 25.405C26.7863 25.405 30.335 22.5671 31.734 16.9253C29.6184 19.7633 27.1616 20.8232 24.3294 20.1052C22.7257 19.6949 21.5655 18.5323 20.303 17.233C18.2215 15.1473 15.8329 12.6854 10.578 12.6854Z" fill="#00B3FF"/>
</svg>
