<svg width="56" height="56" viewBox="0 0 56 56" fill="none" xmlns="http://www.w3.org/2000/svg">
<path d="M0.114624 0.114639V55.8853H55.8853V0.114639H0.114624ZM42.4922 27.2031V27.2039C43.0269 27.2055 43.6348 27.233 44.0919 27.2826C45.9535 27.484 47.4033 28.2872 48.6366 29.8C49.2508 30.5536 49.4609 30.8833 49.4162 31.0243C49.3874 31.1154 48.9659 31.4172 47.6261 32.3065C46.3099 33.1804 45.886 33.4422 45.7876 33.4422C45.6876 33.4422 45.4796 33.2281 45.1798 32.8171C44.6023 32.0257 44.0127 31.6646 43.1014 31.5442C42.1213 31.4143 41.2421 31.7232 40.8115 32.349C40.4434 32.8838 40.3878 33.7441 40.6803 34.3693C41.0193 35.0934 41.6328 35.4938 43.9838 36.5246C46.6952 37.7135 48.0692 38.5273 49.07 39.5373C50.1476 40.6248 50.6936 41.8805 50.8613 43.6567C50.9432 44.5225 50.8431 45.5485 50.5955 46.3827C49.9879 48.4278 48.3482 49.9253 45.9452 50.6301C45.2808 50.8248 44.6627 50.9412 44.0513 50.986C43.1178 51.0548 41.7818 51.0169 40.9776 50.8999C38.9431 50.6034 36.6464 49.4195 35.5011 48.0772C34.9389 47.4182 34.2211 46.3337 34.2211 46.143C34.2211 46.0508 34.2668 45.9985 34.4475 45.8837C34.9836 45.543 38.0554 43.7871 38.115 43.7871C38.1511 43.7871 38.3115 43.9761 38.4715 44.2073C38.8338 44.7305 39.7249 45.6298 40.1779 45.9299C40.548 46.175 41.0212 46.3717 41.583 46.5137C41.9048 46.5939 42.0751 46.6083 42.7772 46.6083C43.4945 46.608 43.6416 46.596 43.9626 46.5097C44.8114 46.2813 45.474 45.8085 45.7547 45.2311C45.8778 44.9816 45.8802 44.9505 45.8802 44.3453V43.7179L45.7293 43.4185C45.3639 42.6933 44.5766 42.1956 42.0871 41.1173C40.9437 40.6219 39.5433 39.9236 38.9965 39.5761C37.7486 38.7832 36.8838 37.8766 36.3162 36.7669C35.7517 35.6634 35.6676 35.2526 35.6663 33.5933C35.6649 32.2943 35.6627 32.3103 35.9316 31.4813C36.1756 30.7289 36.6751 29.8885 37.2265 29.3024C38.3269 28.1327 39.9348 27.3809 41.6561 27.2314C41.8762 27.2105 42.1712 27.2024 42.492 27.2033L42.4922 27.2031ZM27.6801 27.4596H27.6807C30.9959 27.4613 32.8963 27.4728 32.9268 27.4919C32.9842 27.5274 32.9915 27.816 32.9915 29.6574V31.7817L29.6834 31.7938L26.3752 31.8058V41.1984C26.3752 46.3644 26.3647 50.6217 26.3504 50.6593C26.327 50.7226 26.0725 50.7274 23.92 50.7274H21.5159L21.4911 50.6303C21.4751 50.577 21.4633 46.3194 21.4631 41.1693L21.4622 31.8053L18.1543 31.7935L14.846 31.7815V29.6823C14.846 28.0174 14.8575 27.5715 14.9019 27.5272C14.9474 27.4803 16.6357 27.4683 23.9103 27.461C25.3127 27.4596 26.5751 27.459 27.6803 27.4596H27.6801Z" fill="#0288D1"/>
</svg>
